<?xml version="1.0" standalone="no"?>
<!DOCTYPE svg PUBLIC "-//W3C//DTD SVG 20010904//EN"
 "http://www.w3.org/TR/2001/REC-SVG-20010904/DTD/svg10.dtd">
<svg version="1.0" xmlns="http://www.w3.org/2000/svg"
 width="700.000000pt" height="700.000000pt" viewBox="0 0 700.000000 700.000000"
 preserveAspectRatio="xMidYMid meet">
<metadata>
Created by potrace 1.14, written by Peter Selinger 2001-2017
</metadata>
<g transform="translate(0.000000,700.000000) scale(0.100000,-0.100000)"
fill="#000000" stroke="none">
<path d="M192 3503 l3 -3428 763 0 764 0 56 61 c32 34 86 94 122 134 36 40 70
78 75 84 6 6 34 37 62 69 l53 58 -18 27 c-9 14 -138 204 -285 421 -148 217
-272 402 -277 411 -11 20 5 63 109 307 91 214 90 205 27 292 -18 25 -116 170
-218 321 -102 151 -220 326 -262 388 -42 63 -76 117 -76 122 0 5 -3 10 -7 12
-5 2 -35 44 -68 93 -67 102 -153 194 -205 219 -81 39 -75 11 -73 344 3 293 3
296 25 318 23 23 49 37 355 194 90 46 172 92 183 102 19 18 20 28 15 236 -5
238 -13 518 -20 742 -2 80 -7 255 -11 390 -3 135 -7 281 -9 325 -4 130 -9 124
299 299 28 15 116 67 196 114 80 47 154 91 165 97 165 89 234 143 228 175 -1
3 -4 40 -8 82 -3 43 -8 88 -10 100 -2 13 -9 67 -15 122 -17 146 -24 176 -43
177 -7 0 -21 3 -32 6 -11 4 -435 8 -943 10 l-922 4 2 -3428z"/>
<path d="M4919 6918 c0 -7 -2 -22 -4 -33 -2 -11 -6 -42 -9 -70 -14 -134 -26
-228 -32 -259 -14 -73 -14 -140 0 -161 12 -19 110 -80 270 -170 23 -13 115
-66 205 -119 90 -53 165 -96 167 -96 2 0 28 -16 58 -35 30 -19 57 -35 60 -35
9 0 93 -59 107 -76 13 -16 13 -46 4 -374 -1 -63 -6 -232 -10 -375 -4 -143 -8
-309 -10 -370 -15 -462 -16 -671 -3 -687 7 -9 76 -49 153 -89 302 -155 371
-192 391 -210 18 -17 21 -32 22 -131 1 -62 5 -192 8 -289 4 -118 2 -184 -5
-197 -6 -11 -40 -36 -75 -56 -36 -20 -78 -51 -95 -69 -31 -33 -168 -231 -565
-820 -195 -291 -227 -343 -221 -365 6 -26 103 -262 152 -369 38 -85 39 -106 8
-160 -16 -26 -31 -50 -34 -53 -3 -3 -29 -39 -57 -80 -66 -98 -342 -503 -411
-603 -34 -50 -51 -83 -46 -91 7 -12 40 -49 167 -191 19 -22 61 -70 93 -106
106 -121 8 -109 861 -109 l742 0 0 3430 0 3430 -945 0 c-749 0 -945 -3 -946
-12z"/>
<path d="M2317 6874 c-12 -24 -14 -73 -11 -309 11 -749 11 -721 -12 -752 -11
-15 -39 -37 -62 -48 -47 -22 -47 -13 -12 -140 11 -44 33 -123 46 -175 36 -133
94 -352 99 -370 101 -387 104 -397 136 -426 20 -18 201 -132 324 -204 123 -72
365 -226 386 -246 14 -13 45 -68 69 -122 24 -53 56 -125 72 -160 15 -35 28
-65 28 -67 0 -3 11 -28 24 -57 13 -29 63 -143 111 -252 48 -109 100 -223 116
-254 17 -30 29 -55 27 -57 -2 -1 -59 21 -128 50 -69 29 -188 78 -265 110 -77
31 -153 63 -170 70 -16 7 -124 52 -240 100 -115 47 -228 94 -250 104 -74 34
-112 44 -137 38 -14 -4 -72 -43 -129 -87 -57 -44 -124 -96 -149 -115 -72 -56
-306 -235 -569 -435 -134 -102 -249 -189 -255 -195 -6 -5 -33 -26 -59 -45 -27
-19 -59 -44 -72 -55 l-23 -21 80 -124 c44 -69 84 -129 88 -133 4 -4 49 12 101
36 270 127 605 286 814 387 83 39 166 74 185 76 31 4 71 -17 369 -195 183
-110 339 -206 347 -212 15 -13 -3 -27 -329 -249 -92 -63 -229 -158 -304 -210
l-137 -95 -195 -282 c-365 -526 -426 -616 -424 -622 1 -3 39 -67 85 -142 l84
-136 29 25 c17 13 63 54 104 91 41 36 83 74 93 83 22 19 159 142 194 173 29
26 77 69 139 124 28 24 84 75 126 112 152 137 136 128 514 294 72 31 158 70
193 86 35 16 65 29 67 29 2 0 43 18 90 40 47 22 88 40 90 40 1 0 42 18 89 40
47 22 88 40 90 40 3 0 44 18 91 40 47 22 88 40 90 40 2 0 36 15 77 34 187 86
211 96 217 96 3 0 6 -473 6 -1051 l0 -1051 23 -19 c26 -20 54 -13 66 16 3 8 8
462 11 1008 3 545 8 1012 11 1037 8 72 38 122 99 166 54 39 86 84 100 139 4
17 9 134 11 260 6 344 10 427 23 459 7 16 142 204 302 418 296 397 331 447
336 482 7 40 -19 86 -75 135 -31 27 -214 176 -407 330 -192 155 -381 308 -420
340 -164 136 -239 173 -340 165 -71 -6 -113 -29 -380 -208 -136 -91 -255 -166
-265 -166 -31 0 -611 297 -633 324 -11 14 -62 128 -114 253 -51 125 -97 237
-102 248 -11 25 -106 263 -116 290 -8 22 -11 65 -19 340 -9 272 -17 511 -21
595 -2 41 -4 84 -4 96 -1 11 -7 29 -15 39 -13 18 -14 17 -29 -11z"/>
<path d="M3440 6229 c-126 -11 -241 -61 -345 -149 -81 -69 -179 -118 -250
-126 l-58 -7 114 -39 c63 -22 177 -61 254 -88 77 -27 300 -104 495 -170 195
-67 365 -127 378 -133 34 -16 43 0 49 99 10 177 -42 319 -163 440 -101 103
-211 153 -384 177 -8 2 -49 0 -90 -4z"/>
<path d="M3031 5763 c-38 -72 -56 -220 -39 -315 14 -77 75 -192 140 -262 98
-108 222 -158 373 -151 155 7 290 62 385 157 55 56 109 146 129 215 l9 31 -91
32 c-157 54 -626 219 -756 266 -68 24 -127 44 -132 44 -5 0 -13 -8 -18 -17z"/>
</g>
</svg>
