<?xml version="1.0" encoding="utf-8"?>
<!-- Svg Vector Icons : http://www.onlinewebfonts.com/icon -->
<!DOCTYPE svg PUBLIC "-//W3C//DTD SVG 1.1//EN" "http://www.w3.org/Graphics/SVG/1.1/DTD/svg11.dtd">
<svg version="1.1" xmlns="http://www.w3.org/2000/svg" xmlns:xlink="http://www.w3.org/1999/xlink" x="0px" y="0px" viewBox="0 0 1000 1000" enable-background="new 0 0 1000 1000" xml:space="preserve">
<metadata> Svg Vector Icons : http://www.onlinewebfonts.com/icon </metadata>
<g><path d="M298.6,931c-16.9,18.9-33.1,37.2-49.7,55.4c-1.7,1.8-4.8,3.3-7.3,3.3c-70.5,0.2-141.1,0.1-211.6,0.1c-0.8,0-1.6-0.4-2.8-0.7c0-326,0-652,0-978.6c2.7-0.2,5.2-0.5,7.7-0.5c76,0,152.1-0.1,228.1,0.1c10.1,0,20.2,1.4,30.3,1.7c5.4,0.2,8.1,2.5,8.7,7.5c2.5,20.9,5.3,41.9,7.3,62.9c0.2,2.6-2.9,6.6-5.5,8.1c-37.8,22.4-75.7,44.6-113.7,66.5c-5.9,3.4-8.3,6.9-8.1,14.1c2.4,80.6,4.3,161.3,6.6,241.9c0.2,5.8-1.6,8.8-6.7,11.3c-23.2,11.8-46.1,24-69.3,35.8c-4.6,2.4-6.8,5-6.8,10.5c-0.3,25.1-1.3,50.3-1.5,75.4c0,3.1,2.6,8,5.2,9.1c15.1,6.4,24.7,17.7,33.5,31.1c31.8,48.3,64.3,96,96.7,143.8c2.9,4.3,3.4,7.7,1.3,12.5c-8.4,19-16.1,38.3-24.5,57.3c-2.2,4.9-1.7,8.2,1.3,12.5C244.5,851.6,271.3,891,298.6,931z"/><path d="M705.2,931c27.1-39.8,53.7-79,80.6-118.1c3.3-4.8,3.8-8.6,1.4-14c-8.4-18.7-16-37.7-24.2-56.5c-1.9-4.3-2-7.5,0.8-11.8c35.8-52.8,71.2-106.1,107.5-158.6c4.8-7,14.2-11.2,22-15.8c4.7-2.8,7.1-5.3,6.8-11.3c-1-24.6-1.6-49.1-1.9-73.7c-0.1-5.6-1.7-8.8-6.9-11.4c-23.2-11.7-46.1-24-69.3-35.8c-5.1-2.6-6.8-5.6-6.6-11.4c2.3-80.3,4.1-160.7,6.6-241c0.3-8.1-2.6-11.7-9-15.4c-37.3-21.5-74.3-43.4-111.7-64.9c-5.5-3.2-7.7-6.3-6.8-12.9c3.1-22.6,5.6-45.2,8.4-68.2c90.2,0,179.8,0,270.1,0c0,326,0,652,0,979.5c-2.7,0-5.7,0-8.7,0c-66.2,0-132.4-0.1-198.6,0.1c-5.7,0-9.6-1.7-13.3-6C736.9,966.3,721.2,949,705.2,931z"/><path d="M312.5,179.1c19.6-4,18.8-18,18.4-33.3c-1.2-39-1.3-78.1-1.9-117.1c0-2.3-0.6-4.8,0.1-6.9c0.9-2.8,2.8-5.3,4.3-8c1.4,2.5,3.9,4.9,4,7.4c1.2,29.5,2.1,58.9,3,88.4c0.6,17.3,1,34.7,1.7,52c0.1,3.4,1,6.9,2.2,10c14.4,35.6,28.8,71.2,43.6,106.6c1.5,3.6,4.9,7.1,8.4,8.9c26.2,13.4,52.7,26.3,79,39.6c5.1,2.6,8.5,2.3,13.2-1c20.4-14.2,41.2-27.8,61.8-41.7c19.3-12.9,38.3-12.2,56.4,2.4c43.2,34.8,86.4,69.7,129.6,104.5c2.3,1.8,4.5,3.7,6.6,5.6c9.7,8.6,11.2,17,3.6,27.4c-27.2,37-54.6,73.9-82.3,110.6c-4.4,5.8-6.5,11.6-6.5,19c-0.2,26.6-1.7,53.2-1.4,79.8c0.2,13.5-3.8,24.5-14.9,31.1c-13.6,8.1-15.6,19.4-15.6,34c0,91.1-1,182.2-1.6,273.3c0,2.9,0.5,6.1-0.5,8.6c-1,2.3-4.2,5.4-5.8,5.1c-2.6-0.5-5.8-3.2-6.6-5.7c-1.2-3.4-0.5-7.4-0.5-11.2c0-92.8,0-185.6,0-278.5c0-3.2,0-6.3,0-11c-4.3,2.1-7.5,3.7-10.8,5.2c-62.8,27.9-125.7,55.7-188.4,83.7c-6.2,2.8-12.4,6.3-17.4,10.8c-35.1,31-69.9,62.4-104.8,93.6c-2.1,1.9-4.3,3.7-7,5.9c-8.5-13.7-16.6-26.9-24.9-40.3c29.4-42.5,58.6-84.8,88.1-127c1.9-2.7,5-4.7,7.9-6.6c32.8-22.6,65.7-45.2,98.6-67.8c2.1-1.5,4.1-3.1,6.6-5c-2-1.4-3.5-2.7-5.2-3.7c-30.3-18-60.7-35.9-90.8-54.2c-5.1-3.1-9-2.9-14.2-0.5c-48.2,23.1-96.5,45.9-144.8,68.7c-1.8,0.9-3.6,1.7-6,2.8c-8.3-12.8-16.3-25.2-24.8-38.3c20-15.3,39.4-30.2,58.9-45.1c38.1-29.1,76.4-58.1,114.3-87.5c5.7-4.4,10.1-4.5,16.3-1.9c50.3,21.1,100.8,41.9,151.3,62.8c2.6,1.1,5.2,1.9,9.7,3.5c-4.3-8.1-8.1-14.4-11-21.1c-16.1-36.7-31.9-73.6-48.2-110.2c-1.8-4.1-5.2-8.4-9-10.7c-31.1-19.4-62.5-38.5-93.9-57.5c-5.3-3.2-8.3-7-9.9-13.1C338.8,277.6,325.8,229.3,312.5,179.1z"/><path d="M575.5,223.3c-8.7,31.4-29.1,49.3-59.5,55.8c-30.7,6.5-56.9-1.7-75.5-27.9c-17.1-24.1-18.7-49.9-6.2-77.6C481.8,190.3,528.4,206.7,575.5,223.3z"/><path d="M580.2,213.4c-60.9-21-121-41.8-183.6-63.5c8.3-0.8,14.6-0.1,19.5-2.3c8.7-4,17.8-8.5,24.7-15C468.4,107,508.8,102,542,121.1C574.3,139.7,589.5,175.7,580.2,213.4z"/></g>
</svg>